# Original low-poly Hanuman blockout parts. +Z forward, metres after scene scaling.
o Skull
g Skull
s off
v 0.2494475 -0.5000000 0.1224587
v 0.1033245 -0.5000000 0.2956415
v -0.1033245 -0.5000000 0.2956415
v -0.2494475 -0.5000000 0.1224587
v -0.2494475 -0.5000000 -0.1224587
v -0.1033245 -0.5000000 -0.2956415
v 0.1033245 -0.5000000 -0.2956415
v 0.2494475 -0.5000000 -0.1224587
v 0.4342234 -0.2600000 0.1760344
v 0.1798612 -0.2600000 0.4249846
v -0.1798612 -0.2600000 0.4249846
v -0.4342234 -0.2600000 0.1760344
v -0.4342234 -0.2600000 -0.1760344
v -0.1798612 -0.2600000 -0.4249846
v 0.1798612 -0.2600000 -0.4249846
v 0.4342234 -0.2600000 -0.1760344
v 0.4988949 0.1500000 0.2066491
v 0.2066491 0.1500000 0.4988949
v -0.2066491 0.1500000 0.4988949
v -0.4988949 0.1500000 0.2066491
v -0.4988949 0.1500000 -0.2066491
v -0.2066491 0.1500000 -0.4988949
v 0.2066491 0.1500000 -0.4988949
v 0.4988949 0.1500000 -0.2066491
v 0.3972682 0.4000000 0.1645539
v 0.1645539 0.4000000 0.3972682
v -0.1645539 0.4000000 0.3972682
v -0.3972682 0.4000000 0.1645539
v -0.3972682 0.4000000 -0.1645539
v -0.1645539 0.4000000 -0.3972682
v 0.1645539 0.4000000 -0.3972682
v 0.3972682 0.4000000 -0.1645539
v 0.2586863 0.5000000 0.1148050
v 0.1071514 0.5000000 0.2771639
v -0.1071514 0.5000000 0.2771639
v -0.2586863 0.5000000 0.1148050
v -0.2586863 0.5000000 -0.1148050
v -0.1071514 0.5000000 -0.2771639
v 0.1071514 0.5000000 -0.2771639
v 0.2586863 0.5000000 -0.1148050
vn -0.0000000 -1.0000000 -0.0000000
f 1//1 2//1 3//1
f 1//1 3//1 4//1
f 1//1 4//1 5//1
f 1//1 5//1 6//1
f 1//1 6//1 7//1
f 1//1 7//1 8//1
vn 0.6578934 -0.5089627 0.5550976
f 9//2 10//2 2//2
f 9//2 2//2 1//2
vn -0.0000000 -0.4744193 0.8802990
f 10//3 11//3 3//3
f 10//3 3//3 2//3
vn -0.6166076 -0.5908653 0.5202627
f 11//4 12//4 4//4
f 11//4 4//4 3//4
vn -0.7923678 -0.6100437 0.0000000
f 12//5 13//5 5//5
f 12//5 5//5 4//5
vn -0.6578934 -0.5089627 -0.5550976
f 13//6 14//6 6//6
f 13//6 6//6 5//6
vn -0.0000000 -0.4744193 -0.8802990
f 14//7 15//7 7//7
f 14//7 7//7 6//7
vn 0.6166076 -0.5908653 -0.5202627
f 15//8 16//8 8//8
f 15//8 8//8 7//8
vn 0.7923678 -0.6100437 -0.0000000
f 16//9 9//9 1//9
f 16//9 1//9 8//9
vn 0.6890470 -0.1719339 0.7040263
f 17//10 18//10 10//10
f 17//10 10//10 9//10
vn -0.0000000 -0.1774096 0.9841371
f 18//11 19//11 11//11
f 18//11 11//11 10//11
vn -0.6902759 -0.1615444 0.7052819
f 19//12 20//12 12//12
f 19//12 12//12 11//12
vn -0.9877872 -0.1558091 0.0000000
f 20//13 21//13 13//13
f 20//13 13//13 12//13
vn -0.6890470 -0.1719339 -0.7040263
f 21//14 22//14 14//14
f 21//14 14//14 13//14
vn -0.0000000 -0.1774096 -0.9841371
f 22//15 23//15 15//15
f 22//15 15//15 14//15
vn 0.6902759 -0.1615444 -0.7052819
f 23//16 24//16 16//16
f 23//16 16//16 15//16
vn 0.9877872 -0.1558091 -0.0000000
f 24//17 17//17 9//17
f 24//17 9//17 16//17
vn 0.6550521 0.3765814 0.6550521
f 25//18 26//18 18//18
f 25//18 18//18 17//18
vn 0.0000000 0.3765814 0.9263835
f 26//19 27//19 19//19
f 26//19 19//19 18//19
vn -0.6550521 0.3765814 0.6550521
f 27//20 28//20 20//20
f 27//20 20//20 19//20
vn -0.9263835 0.3765814 0.0000000
f 28//21 29//21 21//21
f 28//21 21//21 20//21
vn -0.6550521 0.3765814 -0.6550521
f 29//22 30//22 22//22
f 29//22 22//22 21//22
vn -0.0000000 0.3765814 -0.9263835
f 30//23 31//23 23//23
f 30//23 23//23 22//23
vn 0.6550521 0.3765814 -0.6550521
f 31//24 32//24 24//24
f 31//24 24//24 23//24
vn 0.9263835 0.3765814 -0.0000000
f 32//25 25//25 17//25
f 32//25 17//25 24//25
vn 0.4406155 0.7821227 0.4406155
f 33//26 34//26 26//26
f 33//26 26//26 25//26
vn 0.0000000 0.7684948 0.6398560
f 34//27 35//27 27//27
f 34//27 27//27 26//27
vn -0.4245969 0.7996467 0.4245969
f 35//28 36//28 28//28
f 35//28 28//28 27//28
vn -0.5851561 0.8109207 0.0000000
f 36//29 37//29 29//29
f 36//29 29//29 28//29
vn -0.4406155 0.7821227 -0.4406155
f 37//30 38//30 30//30
f 37//30 30//30 29//30
vn -0.0000000 0.7684948 -0.6398560
f 38//31 39//31 31//31
f 38//31 31//31 30//31
vn 0.4245969 0.7996467 -0.4245969
f 39//32 40//32 32//32
f 39//32 32//32 31//32
vn 0.5851561 0.8109207 -0.0000000
f 40//33 33//33 25//33
f 40//33 25//33 32//33
vn -0.0000000 1.0000000 -0.0000000
f 40//34 39//34 38//34
f 40//34 38//34 37//34
f 40//34 37//34 36//34
f 40//34 36//34 35//34
f 40//34 35//34 34//34
f 40//34 34//34 33//34
o Muzzle
g Muzzle
s off
v 0.4988949 0.1836880 -0.5000000
v 0.2066491 0.4434622 -0.5000000
v -0.2066491 0.4434622 -0.5000000
v -0.4988949 0.1836880 -0.5000000
v -0.4988949 -0.1836880 -0.5000000
v -0.2066491 -0.4434622 -0.5000000
v 0.2066491 -0.4434622 -0.5000000
v 0.4988949 -0.1836880 -0.5000000
v 0.3695518 0.1377660 0.3000000
v 0.1530734 0.3325966 0.3000000
v -0.1530734 0.3325966 0.3000000
v -0.3695518 0.1377660 0.3000000
v -0.3695518 -0.1377660 0.3000000
v -0.1530734 -0.3325966 0.3000000
v 0.1530734 -0.3325966 0.3000000
v 0.3695518 -0.1377660 0.3000000
v 0.3048802 0.1148050 0.5000000
v 0.1262855 0.2771639 0.5000000
v -0.1262855 0.2771639 0.5000000
v -0.3048802 0.1148050 0.5000000
v -0.3048802 -0.1148050 0.5000000
v -0.1262855 -0.2771639 0.5000000
v 0.1262855 -0.2771639 0.5000000
v 0.3048802 -0.1148050 0.5000000
vn 0.0000000 0.0000000 -1.0000000
f 48//35 47//35 46//35
f 48//35 46//35 45//35
f 48//35 45//35 44//35
f 48//35 44//35 43//35
f 48//35 43//35 42//35
f 48//35 42//35 41//35
vn 0.6571985 0.7393483 0.1464726
f 41//36 42//36 50//36
f 41//36 50//36 49//36
vn 0.0000000 0.9905337 0.1372701
f 42//37 43//37 51//37
f 42//37 51//37 50//37
vn -0.6569830 0.7391059 0.1486468
f 43//38 44//38 52//38
f 43//38 52//38 51//38
vn -0.9871807 0.0000000 0.1596063
f 44//39 45//39 53//39
f 44//39 53//39 52//39
vn -0.6571985 -0.7393483 0.1464726
f 45//40 46//40 54//40
f 45//40 54//40 53//40
vn -0.0000000 -0.9905337 0.1372701
f 46//41 47//41 55//41
f 46//41 55//41 54//41
vn 0.6569830 -0.7391059 0.1486468
f 47//42 48//42 56//42
f 47//42 56//42 55//42
vn 0.9871807 -0.0000000 0.1596063
f 48//43 41//43 49//43
f 48//43 49//43 56//43
vn 0.6415211 0.7128012 0.2834875
f 49//44 50//44 58//44
f 49//44 58//44 57//44
vn 0.0000000 0.9636703 0.2670946
f 50//45 51//45 59//45
f 50//45 59//45 58//45
vn -0.6404606 0.7116229 0.2887958
f 51//46 52//46 60//46
f 51//46 60//46 59//46
vn -0.9514923 0.0000000 0.3076725
f 52//47 53//47 61//47
f 52//47 61//47 60//47
vn -0.6415211 -0.7128012 0.2834875
f 53//48 54//48 62//48
f 53//48 62//48 61//48
vn -0.0000000 -0.9636703 0.2670946
f 54//49 55//49 63//49
f 54//49 63//49 62//49
vn 0.6404606 -0.7116229 0.2887958
f 55//50 56//50 64//50
f 55//50 64//50 63//50
vn 0.9514923 -0.0000000 0.3076725
f 56//51 49//51 57//51
f 56//51 57//51 64//51
vn 0.0000000 0.0000000 1.0000000
f 57//52 58//52 59//52
f 57//52 59//52 60//52
f 57//52 60//52 61//52
f 57//52 61//52 62//52
f 57//52 62//52 63//52
f 57//52 63//52 64//52
o Jaw
g Jaw
s off
v 0.4619398 0.1377660 -0.5000000
v 0.1913417 0.3325966 -0.5000000
v -0.1913417 0.3325966 -0.5000000
v -0.4619398 0.1377660 -0.5000000
v -0.4619398 -0.1377660 -0.5000000
v -0.1913417 -0.3325966 -0.5000000
v 0.1913417 -0.3325966 -0.5000000
v 0.4619398 -0.1377660 -0.5000000
v 0.4157458 0.1913417 0.3000000
v 0.1722075 0.4619398 0.3000000
v -0.1722075 0.4619398 0.3000000
v -0.4157458 0.1913417 0.3000000
v -0.4157458 -0.1913417 0.3000000
v -0.1722075 -0.4619398 0.3000000
v 0.1722075 -0.4619398 0.3000000
v 0.4157458 -0.1913417 0.3000000
v 0.2956415 0.1377660 0.5000000
v 0.1224587 0.3325966 0.5000000
v -0.1224587 0.3325966 0.5000000
v -0.2956415 0.1377660 0.5000000
v -0.2956415 -0.1377660 0.5000000
v -0.1224587 -0.3325966 0.5000000
v 0.1224587 -0.3325966 0.5000000
v 0.2956415 -0.1377660 0.5000000
vn 0.0000000 0.0000000 -1.0000000
f 72//53 71//53 70//53
f 72//53 70//53 69//53
f 72//53 69//53 68//53
f 72//53 68//53 67//53
f 72//53 67//53 66//53
f 72//53 66//53 65//53
vn 0.5803304 0.8060145 -0.1164354
f 65//54 66//54 74//54
f 65//54 74//54 73//54
vn 0.0000000 0.9871807 -0.1596063
f 66//55 67//55 75//55
f 66//55 75//55 74//55
vn -0.5841807 0.8113621 -0.0206046
f 67//56 68//56 76//56
f 67//56 76//56 75//56
vn -0.9983371 0.0000000 0.0576464
f 68//57 69//57 77//57
f 68//57 77//57 76//57
vn -0.5803304 -0.8060145 -0.1164354
f 69//58 70//58 78//58
f 69//58 78//58 77//58
vn -0.0000000 -0.9871807 -0.1596063
f 70//59 71//59 79//59
f 70//59 79//59 78//59
vn 0.5841807 -0.8113621 -0.0206046
f 71//60 72//60 80//60
f 71//60 80//60 79//60
vn 0.9983371 -0.0000000 0.0576464
f 72//61 65//61 73//61
f 72//61 73//61 80//61
vn 0.6324291 0.5691862 0.5254147
f 73//62 74//62 82//62
f 73//62 82//62 81//62
vn 0.0000000 0.8397016 0.5430482
f 74//63 75//63 83//63
f 74//63 83//63 82//63
vn -0.6301520 0.5671368 0.5303436
f 75//64 76//64 84//64
f 75//64 84//64 83//64
vn -0.8572955 0.0000000 0.5148246
f 76//65 77//65 85//65
f 76//65 85//65 84//65
vn -0.6324291 -0.5691862 0.5254147
f 77//66 78//66 86//66
f 77//66 86//66 85//66
vn -0.0000000 -0.8397016 0.5430482
f 78//67 79//67 87//67
f 78//67 87//67 86//67
vn 0.6301520 -0.5671368 0.5303436
f 79//68 80//68 88//68
f 79//68 88//68 87//68
vn 0.8572955 -0.0000000 0.5148246
f 80//69 73//69 81//69
f 80//69 81//69 88//69
vn 0.0000000 0.0000000 1.0000000
f 81//70 82//70 83//70
f 81//70 83//70 84//70
f 81//70 84//70 85//70
f 81//70 85//70 86//70
f 81//70 86//70 87//70
f 81//70 87//70 88//70
o Eye
g Eye
s off
v -0.5000000 0.0000000 -0.5000000
v -0.2000000 -0.3800000 -0.5000000
v 0.2200000 -0.3000000 -0.5000000
v 0.5000000 0.0000000 -0.5000000
v 0.1800000 0.3800000 -0.5000000
v -0.1800000 0.3000000 -0.5000000
v -0.5000000 0.0000000 0.5000000
v -0.2000000 -0.3800000 0.5000000
v 0.2200000 -0.3000000 0.5000000
v 0.5000000 0.0000000 0.5000000
v 0.1800000 0.3800000 0.5000000
v -0.1800000 0.3000000 0.5000000
vn 0.0000000 0.0000000 -1.0000000
f 94//71 93//71 92//71
f 94//71 92//71 91//71
f 94//71 91//71 90//71
f 94//71 90//71 89//71
vn 0.0000000 0.0000000 1.0000000
f 95//72 96//72 97//72
f 95//72 97//72 98//72
f 95//72 98//72 99//72
f 95//72 99//72 100//72
vn -0.7848828 -0.6196443 0.0000000
f 89//73 90//73 96//73
f 89//73 96//73 95//73
vn 0.1871121 -0.9823386 0.0000000
f 90//74 91//74 97//74
f 90//74 97//74 96//74
vn 0.7310553 -0.6823183 0.0000000
f 91//75 92//75 98//75
f 91//75 98//75 97//75
vn 0.7649112 0.6441357 0.0000000
f 92//76 93//76 99//76
f 92//76 99//76 98//76
vn -0.2169305 0.9761871 0.0000000
f 93//77 94//77 100//77
f 93//77 100//77 99//77
vn -0.6839411 0.7295372 0.0000000
f 94//78 89//78 95//78
f 94//78 95//78 100//78
o Ear
g Ear
s off
v -0.4000000 -0.5000000 -0.5000000
v 0.2500000 -0.2800000 -0.5000000
v 0.5000000 0.4800000 -0.5000000
v -0.1600000 0.3000000 -0.5000000
v -0.5000000 -0.0800000 -0.5000000
v -0.4000000 -0.5000000 0.5000000
v 0.2500000 -0.2800000 0.5000000
v 0.5000000 0.4800000 0.5000000
v -0.1600000 0.3000000 0.5000000
v -0.5000000 -0.0800000 0.5000000
vn 0.0000000 0.0000000 -1.0000000
f 105//79 104//79 103//79
f 105//79 103//79 102//79
f 105//79 102//79 101//79
vn 0.0000000 0.0000000 1.0000000
f 106//80 107//80 108//80
f 106//80 108//80 109//80
f 106//80 109//80 110//80
vn 0.3205962 -0.9472160 0.0000000
f 101//81 102//81 107//81
f 101//81 107//81 106//81
vn 0.9499258 -0.3124756 0.0000000
f 102//82 103//82 108//82
f 102//82 108//82 107//82
vn -0.2631174 0.9647638 0.0000000
f 103//83 104//83 109//83
f 103//83 109//83 108//83
vn -0.7452413 0.6667949 0.0000000
f 104//84 105//84 110//84
f 104//84 110//84 109//84
vn -0.9728062 -0.2316205 0.0000000
f 105//85 101//85 106//85
f 105//85 106//85 110//85
o Wedge
g Wedge
s off
v -0.5000000 -0.2500000 -0.5000000
v 0.5000000 -0.5000000 -0.5000000
v 0.3400000 0.3500000 -0.5000000
v -0.4000000 0.5000000 -0.5000000
v -0.5000000 -0.2500000 0.5000000
v 0.5000000 -0.5000000 0.5000000
v 0.3400000 0.3500000 0.5000000
v -0.4000000 0.5000000 0.5000000
vn 0.0000000 0.0000000 -1.0000000
f 114//86 113//86 112//86
f 114//86 112//86 111//86
vn -0.0000000 0.0000000 1.0000000
f 115//87 116//87 117//87
f 115//87 117//87 118//87
vn -0.2425356 -0.9701425 0.0000000
f 111//88 112//88 116//88
f 111//88 116//88 115//88
vn 0.9827411 0.1849866 0.0000000
f 112//89 113//89 117//89
f 112//89 117//89 116//89
vn 0.1986624 0.9800680 0.0000000
f 113//90 114//90 118//90
f 113//90 118//90 117//90
vn -0.9912279 0.1321637 0.0000000
f 114//91 111//91 115//91
f 114//91 115//91 118//91
o Point
g Point
s off
v 0.4619398 -0.5000000 0.1913417
v 0.1913417 -0.5000000 0.4619398
v -0.1913417 -0.5000000 0.4619398
v -0.4619398 -0.5000000 0.1913417
v -0.4619398 -0.5000000 -0.1913417
v -0.1913417 -0.5000000 -0.4619398
v 0.1913417 -0.5000000 -0.4619398
v 0.4619398 -0.5000000 -0.1913417
v 0.0009239 0.5000000 0.0003827
v 0.0003827 0.5000000 0.0009239
v -0.0003827 0.5000000 0.0009239
v -0.0009239 0.5000000 0.0003827
v -0.0009239 0.5000000 -0.0003827
v -0.0003827 0.5000000 -0.0009239
v 0.0003827 0.5000000 -0.0009239
v 0.0009239 0.5000000 -0.0003827
vn -0.0000000 -1.0000000 -0.0000000
f 119//92 120//92 121//92
f 119//92 121//92 122//92
f 119//92 122//92 123//92
f 119//92 123//92 124//92
f 119//92 124//92 125//92
f 119//92 125//92 126//92
vn 0.6421519 0.4186669 0.6421519
f 127//93 128//93 120//93
f 127//93 120//93 119//93
vn 0.0000000 0.4186669 0.9081399
f 128//94 129//94 121//94
f 128//94 121//94 120//94
vn -0.6421519 0.4186669 0.6421519
f 129//95 130//95 122//95
f 129//95 122//95 121//95
vn -0.9081399 0.4186669 0.0000000
f 130//96 131//96 123//96
f 130//96 123//96 122//96
vn -0.6421519 0.4186669 -0.6421519
f 131//97 132//97 124//97
f 131//97 124//97 123//97
vn -0.0000000 0.4186669 -0.9081399
f 132//98 133//98 125//98
f 132//98 125//98 124//98
vn 0.6421519 0.4186669 -0.6421519
f 133//99 134//99 126//99
f 133//99 126//99 125//99
vn 0.9081399 0.4186669 -0.0000000
f 134//100 127//100 119//100
f 134//100 119//100 126//100
vn -0.0000000 1.0000000 -0.0000000
f 134//101 133//101 132//101
f 134//101 132//101 131//101
f 134//101 131//101 130//101
f 134//101 130//101 129//101
f 134//101 129//101 128//101
f 134//101 128//101 127//101
